<svg width="73" height="48" viewBox="0 0 73 48" fill="none" xmlns="http://www.w3.org/2000/svg">
<g filter="url(#filter0_d)">
<path d="M4 0H63C66.3137 0 69 2.68629 69 6V34C69 37.3137 66.3137 40 63 40H4V0Z" fill="#EC1F46"/>
<path fill-rule="evenodd" clip-rule="evenodd" d="M36.3333 14.6667C33.7559 14.6667 31.6666 16.756 31.6666 19.3333C31.6666 21.9107 33.7559 24 36.3333 24C38.9106 24 40.9999 21.9107 40.9999 19.3333C40.9999 16.756 38.9106 14.6667 36.3333 14.6667ZM30.3333 19.3333C30.3333 16.0196 33.0195 13.3333 36.3333 13.3333C39.647 13.3333 42.3333 16.0196 42.3333 19.3333C42.3333 22.6471 39.647 25.3333 36.3333 25.3333C33.0195 25.3333 30.3333 22.6471 30.3333 19.3333Z" fill="white"/>
<path fill-rule="evenodd" clip-rule="evenodd" d="M39.6286 22.6286C39.889 22.3682 40.3111 22.3682 40.5714 22.6286L43.4714 25.5286C43.7318 25.7889 43.7318 26.211 43.4714 26.4714C43.2111 26.7317 42.789 26.7317 42.5286 26.4714L39.6286 23.5714C39.3683 23.311 39.3683 22.8889 39.6286 22.6286Z" fill="white"/>
</g>
<defs>
<filter id="filter0_d" x="0" y="0" width="73" height="48" filterUnits="userSpaceOnUse" color-interpolation-filters="sRGB">
<feFlood flood-opacity="0" result="BackgroundImageFix"/>
<feColorMatrix in="SourceAlpha" type="matrix" values="0 0 0 0 0 0 0 0 0 0 0 0 0 0 0 0 0 0 127 0" result="hardAlpha"/>
<feOffset dy="4"/>
<feGaussianBlur stdDeviation="2"/>
<feComposite in2="hardAlpha" operator="out"/>
<feColorMatrix type="matrix" values="0 0 0 0 0 0 0 0 0 0 0 0 0 0 0 0 0 0 0.25 0"/>
<feBlend mode="normal" in2="BackgroundImageFix" result="effect1_dropShadow"/>
<feBlend mode="normal" in="SourceGraphic" in2="effect1_dropShadow" result="shape"/>
</filter>
</defs>
</svg>
